<svg width="200" height="85" viewBox="0 0 200 85" fill="none" xmlns="http://www.w3.org/2000/svg">
<rect width="200" height="85" rx="20" fill="#535FE6"/>
<g clip-path="url(#clip0_145_10069)">
<path d="M61.8021 30.0015C68.3999 29.9995 74.9981 29.9995 81.5968 30.0015C81.5988 32.1342 81.5988 34.2665 81.5968 36.3984C74.9988 36.4005 68.4006 36.4005 61.8021 36.3984C61.8 34.2658 61.8 32.1335 61.8021 30.0015Z" fill="white"/>
<path d="M54.0083 38.8052C56.1369 38.7941 58.2659 38.7941 60.3952 38.8052C60.4063 40.9338 60.4063 43.0628 60.3952 45.1921C58.266 45.2031 56.137 45.2032 54.0083 45.1927C53.9972 43.0637 53.9972 40.9345 54.0083 38.8052Z" fill="white"/>
<path d="M61.807 38.8052C66.5692 38.7951 71.3311 38.7951 76.0926 38.8052C76.1027 40.9338 76.1027 43.0627 76.0926 45.1921C71.3305 45.202 66.5686 45.202 61.807 45.1921C61.7971 43.0634 61.7971 40.9344 61.807 38.8052Z" fill="white"/>
<path d="M61.8131 47.6108C63.9381 47.5877 66.0628 47.5877 68.1871 47.6108C68.2091 49.7345 68.2095 51.8592 68.188 53.9849C66.063 54.0058 63.9384 54.0055 61.8142 53.9838C61.7921 51.8603 61.7918 49.736 61.8131 47.6108Z" fill="white"/>
</g>
<path d="M104.55 39.82H97.5V42.55H104.4V48.37H97.5V55H91.5V34H104.55V39.82Z" fill="white"/>
<path d="M123.639 34V39.82H118.689V55H112.689V39.82H107.739V34H123.639Z" fill="white"/>
<path d="M145.284 55H138.624L135.624 49.96L132.594 55H125.934L132.294 44.38L126.084 34H132.744L135.624 38.8L138.474 34H145.134L138.954 44.38L145.284 55Z" fill="white"/>
<defs>
<clipPath id="clip0_145_10069">
<rect width="27.5982" height="24" fill="white" transform="translate(54 30)"/>
</clipPath>
</defs>
</svg>
