<svg width="200" height="85" viewBox="0 0 200 85" fill="none" xmlns="http://www.w3.org/2000/svg">
<rect width="200" height="85" rx="20" fill="#535FE6"/>
<path d="M37.2392 31.0335C39.8836 30.8555 42.5789 31.3894 44.9437 32.5845C48.4526 34.3136 51.2496 37.4157 52.5464 41.0772C53.1312 42.7045 53.4363 44.4082 53.4363 46.1372V52.5194C53.4363 52.7737 53.4363 53.0534 53.3855 53.3077C53.2329 53.9434 52.7752 54.5282 52.165 54.8079C51.7327 55.0113 51.2496 55.0367 50.8173 54.9604C49.8511 54.7825 49.0883 53.8671 49.0883 52.8754C49.0883 50.8921 49.0883 48.9088 49.0883 46.9255C49.1137 46.3661 49.1137 45.7558 48.8086 45.2727C48.3255 44.3573 47.105 43.925 46.1642 44.3065C45.3505 44.5862 44.7657 45.4253 44.7402 46.2898C44.7402 48.2985 44.7402 50.3073 44.7402 52.316C44.7402 52.6974 44.7657 53.0788 44.6385 53.4348C44.4351 54.1468 43.8503 54.7062 43.1383 54.9096C42.1975 55.1639 41.1296 54.757 40.6719 53.8925C40.3413 53.384 40.3668 52.7483 40.3922 52.1635C40.3922 50.1547 40.3922 48.1714 40.3922 46.1626C40.3668 45.1456 39.5277 44.2302 38.536 44.103C37.8749 44.0013 37.1884 44.2302 36.7053 44.6879C36.273 45.0947 36.0441 45.6795 36.0441 46.2644V52.0872C36.0441 52.5703 36.095 53.0788 35.917 53.5365C35.6373 54.3756 34.7982 54.9859 33.9083 54.9604C32.9929 55.0113 32.1029 54.3756 31.8232 53.5365C31.6707 53.1043 31.6961 52.672 31.6961 52.2143C31.6961 50.2056 31.6961 48.1968 31.6961 46.1881C31.6961 45.1964 30.9079 44.281 29.9416 44.103C29.0517 43.9251 28.0854 44.3573 27.6277 45.171C27.4498 45.5015 27.348 45.8829 27.348 46.2644V52.7991C27.348 53.4348 27.0683 54.0705 26.5852 54.4773C25.8478 55.113 24.6528 55.1639 23.89 54.579C23.3306 54.1976 23 53.5365 23 52.85V46.2389C23 43.7471 23.6357 41.2552 24.8308 39.043C25.797 37.2377 27.1446 35.6358 28.7465 34.3644C31.1113 32.3811 34.1371 31.2115 37.2392 31.0335Z" fill="white"/>
<path d="M96.6626 38.687H93.357C93.4842 36.3731 93.9673 34.2881 96.0777 32.9659C98.1882 31.6691 100.502 31.364 102.918 31.5674C104.214 31.6691 105.511 31.9488 106.706 32.5082C108.817 33.4744 109.859 35.1272 109.859 37.4411C109.859 41.5348 109.859 45.6286 109.859 49.7224C109.859 51.2226 110.164 51.5023 111.665 51.3497C111.817 51.3243 111.995 51.2989 112.148 51.2735C112.173 51.3497 112.173 51.426 112.173 51.4769V53.9687C110.978 54.3756 109.758 54.5027 108.562 54.1722C107.673 53.9179 107.113 53.2822 106.808 52.4431C106.655 52.0108 106.554 51.5532 106.427 51.07C106.299 51.2226 106.198 51.3497 106.071 51.4769C103.452 54.1213 100.349 55.2401 96.688 54.2993C94.0944 53.6382 92.3145 51.2735 92.2382 48.5782C92.2128 47.7137 92.2891 46.8491 92.4925 46.01C92.9756 44.0776 94.3487 42.9079 96.0777 42.1197C97.2982 41.5603 98.6204 41.4077 99.9427 41.2297C101.494 41.0263 103.019 40.8483 104.57 40.6195C105.613 40.4669 106.147 39.9075 106.299 38.865C106.63 36.7545 105.689 35.356 103.655 34.8475C102.435 34.5424 101.189 34.4915 99.9427 34.7204C98.1119 35.0509 97.0948 36.0934 96.7388 37.8988C96.7643 38.153 96.7134 38.4073 96.6626 38.687ZM106.401 42.7554C104.876 43.569 103.401 43.7724 101.901 44.0013C100.655 44.2047 99.3833 44.3827 98.1628 44.7641C96.5608 45.2981 95.8235 46.6203 95.976 48.4002C96.1032 49.875 97.0948 51.07 98.6967 51.3243C101.163 51.7311 103.35 51.0446 105.079 49.2139C105.587 48.6799 105.994 47.9171 106.096 47.2051C106.325 45.7812 106.299 44.3318 106.401 42.7554ZM153.518 47.0271C153.441 47.3831 153.391 47.6882 153.314 47.9679C151.89 52.316 148.992 54.1722 145.483 54.579C139.406 55.2401 135.922 51.2735 135.032 47.0525C134.32 43.6962 134.422 40.3652 135.897 37.2122C137.295 34.2372 139.533 32.2794 142.864 31.6945C146.856 30.9826 152.501 32.9659 153.441 39.1955C153.696 40.7975 153.747 42.4502 153.899 44.1284H138.439C138.567 46.4169 138.923 48.5528 140.601 50.2055C141.287 50.8921 142.177 51.2226 143.143 51.4006C146.271 51.96 148.865 50.4598 149.882 47.434C149.983 47.1034 150.136 47.0017 150.466 47.0271C151.458 47.0271 152.45 47.0271 153.518 47.0271ZM138.567 41.1789H150.136C150.009 39.8312 149.78 38.5853 149.144 37.4156C148.534 36.2968 147.644 35.4832 146.424 35.0763C142.431 33.7033 138.312 36.8817 138.567 41.1789ZM161.832 53.8416H158.323V32.0251H161.654V35.0763C161.909 34.7966 162.061 34.6187 162.214 34.4407C164.604 31.72 167.604 31.008 171.012 31.8471C173.376 32.4319 174.699 34.1101 175.156 36.4494C175.334 37.4156 175.461 38.4073 175.461 39.3735C175.487 44.0521 175.487 48.7307 175.487 53.4093C175.487 53.5365 175.461 53.6636 175.461 53.8162H171.876V53.2314C171.876 48.8579 171.902 44.4844 171.851 40.1109C171.851 39.1447 171.698 38.153 171.418 37.2122C170.961 35.6866 169.74 34.8729 168.138 34.7966C165.214 34.6949 162.9 36.246 162.188 38.8396C161.934 39.7804 161.858 40.772 161.858 41.7637C161.832 45.6032 161.832 49.4173 161.832 53.2059V53.8416ZM115.58 32.0251H118.962V41.2806C119.166 41.0772 119.293 40.9754 119.42 40.8483C122.191 38.0259 124.963 35.1781 127.735 32.3556C127.963 32.1014 128.192 31.9997 128.548 31.9997C129.845 32.0251 131.167 31.9997 132.591 31.9997C132.388 32.2031 132.286 32.3302 132.159 32.4573C129.718 34.8984 127.302 37.3648 124.836 39.7804C124.556 40.0601 124.556 40.2381 124.734 40.5432C127.404 44.7895 130.048 49.0359 132.693 53.2822C132.795 53.4348 132.871 53.5873 132.998 53.8162C132.82 53.8416 132.693 53.8416 132.54 53.8416C131.32 53.8416 130.125 53.8416 128.904 53.8416C128.574 53.8416 128.421 53.7145 128.243 53.4602C126.209 50.053 124.175 46.6457 122.141 43.213C122.039 43.0605 121.963 42.9079 121.835 42.7299C120.895 43.6707 119.979 44.5607 119.064 45.5015C118.937 45.6286 118.911 45.8575 118.911 46.0355C118.911 48.4256 118.911 50.8158 118.911 53.2059V53.8162C118.25 53.8162 117.589 53.8162 116.953 53.8162C116.496 53.8162 115.86 53.9433 115.606 53.689C115.377 53.4856 115.504 52.8245 115.504 52.3668V32.6099C115.58 32.4828 115.58 32.2794 115.58 32.0251ZM76.5497 31.9997C73.8035 34.7204 71.1337 37.3902 68.4384 40.0601C71.3371 44.6878 74.1595 49.2139 77.0328 53.8416C76.8039 53.8416 76.6514 53.867 76.4988 53.867C75.3291 53.867 74.1341 53.867 72.9644 53.867C72.6339 53.867 72.4304 53.7399 72.2525 53.4602C70.2183 50.053 68.1841 46.6457 66.1499 43.213C66.0737 43.0605 65.9719 42.9333 65.8448 42.7299C65.3363 43.2639 64.8786 43.8487 64.3192 44.2556C63.175 45.1201 62.8444 46.188 62.9207 47.6119C63.0478 49.4681 62.9461 51.3497 62.9461 53.2059V53.8162H59.5897V32.0251H62.9461V41.128C63.0224 41.1789 63.0987 41.2297 63.1495 41.2806C63.2512 41.128 63.3021 40.95 63.4038 40.8229C66.1499 38.0005 68.9215 35.2035 71.6676 32.3556C71.9219 32.1014 72.1508 31.9742 72.5322 31.9997C73.6764 32.0251 74.8206 31.9997 75.9648 31.9997C76.1428 31.9997 76.2954 31.9997 76.5497 31.9997ZM83.2624 35.6357C84.966 33.1439 86.7714 31.0589 90.1278 31.6691V35.4069C89.2378 35.4578 88.3479 35.4323 87.5088 35.6103C85.4492 36.0426 83.8473 37.9242 83.5167 40.2126C83.4658 40.6703 83.415 41.128 83.415 41.5857C83.415 45.4761 83.415 49.3664 83.415 53.2568V53.867H79.9569V32.0759H83.2624C83.2624 33.2202 83.2624 34.3644 83.2624 35.6357Z" fill="white"/>
</svg>
