<svg width="200" height="85" viewBox="0 0 200 85" fill="none" xmlns="http://www.w3.org/2000/svg">
<rect width="200" height="85" rx="20" fill="#535FE6"/>
<g clip-path="url(#clip0_145_10053)">
<path d="M29.2421 37.3899C29.2421 33.9455 27.5687 30.9764 26.2925 30.0063C26.2925 30.0063 26.1949 29.9477 26.2079 30.0909C26.0907 36.7778 22.6984 38.5553 20.8297 40.984C17.9844 44.487 18.5183 49.6242 22.0147 52.4631C22.7831 53.0882 23.6621 53.57 24.6062 53.876C26.8916 54.5141 24.0723 52.7561 23.7141 49.0382C23.2779 44.5195 29.2421 41.1142 29.2421 37.3899Z" fill="white"/>
<path d="M31.4818 39.6823C31.4623 39.6563 31.4297 39.6497 31.4037 39.6628C31.3971 39.6693 31.3906 39.6758 31.3841 39.6823C30.9544 41.2319 30.2251 42.6904 29.2354 43.9601C25.3092 49.5401 27.5556 52.2292 28.8122 53.6356C29.535 54.4756 28.8122 53.6356 30.6418 52.7762C32.8426 51.5456 34.3076 49.3253 34.5681 46.8185C34.7699 44.0773 33.6174 41.4143 31.4818 39.6823Z" fill="white"/>
<path d="M99.5098 39.1942C100.509 39.1942 101.32 38.3837 101.32 37.3841C101.32 36.3844 100.509 35.574 99.5098 35.574C98.5101 35.574 97.6997 36.3844 97.6997 37.3841C97.6997 38.3837 98.5101 39.1942 99.5098 39.1942Z" fill="white"/>
<path d="M49.4916 35.5928V42.5857H42.5508V36.5043C42.5508 36.003 42.1406 35.5928 41.6392 35.5928H39.2822V52.3068C39.2757 52.8082 39.6794 53.2184 40.1807 53.2249H40.2523H42.5963V45.4181H49.5307V52.3133C49.5307 52.8147 49.9409 53.2249 50.4422 53.2249H52.7862V36.5043C52.7862 36.003 52.376 35.5928 51.8747 35.5928H51.8682H49.4916ZM63.2561 39.9617V48.3416C63.2626 49.1034 62.8654 49.8131 62.2143 50.2102C61.0879 50.9395 59.5838 50.6139 58.8611 49.4875C58.6137 49.1034 58.4769 48.6541 58.4769 48.1983V40.8733C58.4769 40.3719 58.0667 39.9617 57.5654 39.9617H55.2214V48.4848C55.2344 51.2325 57.4547 53.4528 60.2024 53.4658H61.5307C64.2784 53.4528 66.4986 51.2325 66.5117 48.4848V40.8733C66.5117 40.3719 66.1015 39.9617 65.6001 39.9617H63.2561Z" fill="white"/>
<path d="M98.7874 53.2247H101.131V41.3549C101.131 40.8536 100.721 40.4434 100.22 40.4434H97.8889V52.3001C97.8824 52.808 98.286 53.2182 98.7874 53.2247Z" fill="white"/>
<path d="M74.9173 39.9555C71.6487 39.8057 68.8815 42.332 68.7317 45.5941C68.7317 45.6462 68.7252 45.7048 68.7252 45.7569V47.593C68.7773 50.8551 71.4729 53.4595 74.735 53.4009C74.7936 53.4009 74.8587 53.4009 74.9173 53.3944C78.1794 53.5507 80.9466 51.0309 81.1029 47.7753C81.1029 47.7167 81.1094 47.6516 81.1094 47.593V45.7569C81.0508 42.4883 78.3487 39.8904 75.0801 39.949C75.0215 39.949 74.9694 39.9555 74.9173 39.9555ZM77.8147 47.86C77.8147 49.4813 76.4995 50.79 74.8847 50.79C73.27 50.79 71.9547 49.4747 71.9547 47.86V45.5681C71.9547 43.9468 73.27 42.6381 74.8847 42.6381C76.4995 42.6381 77.8147 43.9533 77.8147 45.5681V47.86Z" fill="white"/>
<path d="M89.5023 39.9552C88.4996 39.9552 87.5034 40.1831 86.5983 40.6259V36.5239C86.5983 36.0225 86.1881 35.6123 85.6867 35.6123H83.3102V47.6449C83.3623 50.9069 86.0579 53.5114 89.32 53.4528C89.3786 53.4528 89.4437 53.4528 89.5023 53.4463C92.7644 53.6025 95.5316 51.0827 95.6879 47.8272C95.6879 47.7686 95.6944 47.7035 95.6944 47.6449V45.8087C95.6618 42.5401 92.9858 39.9162 89.7106 39.9487C89.639 39.9487 89.5739 39.9487 89.5023 39.9552ZM92.4063 47.8597C92.4063 49.481 91.091 50.7897 89.4762 50.7897C87.855 50.7897 86.5462 49.4745 86.5462 47.8597V45.5678C86.5462 43.9465 87.8615 42.6378 89.4762 42.6378C91.0975 42.6378 92.4063 43.9531 92.4063 45.5678V47.8597Z" fill="white"/>
<path d="M152.667 39.7931C151.664 39.7931 150.668 40.021 149.763 40.4638V36.3618C149.763 35.8604 149.352 35.4502 148.851 35.4502H146.507V47.4828C146.559 50.7448 149.255 53.3493 152.517 53.2907C152.575 53.2907 152.641 53.2907 152.699 53.2842C155.961 53.4404 158.728 50.9206 158.885 47.6651C158.885 47.6065 158.891 47.5414 158.891 47.4828V45.6466C158.859 42.378 156.183 39.7541 152.914 39.7866C152.836 39.7866 152.751 39.7866 152.667 39.7931ZM155.571 47.6911C155.571 49.3124 154.255 50.6211 152.641 50.6211C151.019 50.6211 149.711 49.3059 149.711 47.6911V45.3992C149.711 43.7779 151.026 42.4692 152.641 42.4692C154.262 42.4692 155.571 43.7844 155.571 45.3992V47.6911ZM122.149 42.6515H115.794V44.3835C115.794 44.9174 116.23 45.3536 116.764 45.3536H119.785V46.8837C119.831 47.7953 119.512 48.6873 118.893 49.358C117.363 50.7969 114.993 50.8685 113.378 49.5207C112.519 48.6808 112.337 47.7627 112.337 44.3639C112.337 40.9651 112.519 40.0666 113.378 39.2267C114.192 38.5365 115.215 38.1523 116.282 38.1328C119.753 38.1328 120.918 39.3634 121.784 40.4833H121.902V38.0286C121.902 37.651 121.732 37.2928 121.439 37.0584C119.987 35.8995 118.535 35.4697 116.042 35.4697C114.134 35.4111 112.285 36.0883 110.865 37.3645C108.931 39.0834 108.931 41.0433 108.931 44.2597V44.5137C108.931 47.7367 108.931 49.69 110.865 51.409C113.893 54.0004 118.379 53.9483 121.342 51.2852C122.579 50.0937 123.08 47.8148 123.08 45.4838V43.55C123.041 43.0617 122.644 42.671 122.149 42.6515ZM131.538 53.2256V51.1746C131.538 50.6862 131.141 50.2956 130.659 50.2956H129.025C127.69 50.2956 127.755 49.6249 127.755 47.8995V36.2901C127.755 35.8018 127.358 35.4111 126.876 35.4111H124.48V48.3032C124.48 51.4155 125.281 53.2386 128.641 53.2386H131.545L131.538 53.2256ZM180.391 53.3037V51.2462C180.411 50.7578 180.039 50.3476 179.551 50.3281C179.545 50.3281 179.545 50.3281 179.538 50.3281H177.904C176.569 50.3281 176.634 49.6575 176.634 47.932V36.3943C176.634 35.906 176.237 35.5153 175.755 35.5153H173.359V48.3878C173.359 51.5001 174.16 53.3232 177.52 53.3232H180.424L180.391 53.3037ZM138.909 39.7736C135.64 39.6238 132.873 42.1501 132.723 45.4122C132.723 45.4643 132.717 45.5229 132.717 45.575V47.4242C132.769 50.6862 135.464 53.2907 138.726 53.2321C138.785 53.2321 138.85 53.2321 138.909 53.2256C142.171 53.3818 144.938 50.862 145.094 47.6065C145.094 47.5479 145.101 47.4828 145.101 47.4242V45.588C145.049 42.3194 142.353 39.715 139.084 39.7671C139.026 39.7671 138.967 39.7671 138.909 39.7736ZM141.813 47.6716C141.813 49.2928 140.497 50.6016 138.883 50.6016C137.261 50.6016 135.953 49.2863 135.953 47.6716V45.3666C135.953 43.7454 137.268 42.4366 138.883 42.4366C140.504 42.4366 141.813 43.7519 141.813 45.3666V47.6716ZM170.195 40.9586C168.964 40.1122 167.486 39.6955 165.995 39.7866C165.285 39.7866 164.569 39.8387 163.866 39.9299C163.273 40.008 162.446 40.1252 161.873 40.2489C161.639 40.3075 161.593 40.4898 161.593 40.7047V42.4562C161.593 42.7687 161.593 43.0552 161.932 42.9705C162.551 42.8143 163.749 42.5538 164.068 42.4952C164.621 42.4106 165.174 42.365 165.734 42.3715C166.457 42.3194 167.186 42.4887 167.811 42.8533C168.306 43.2766 168.554 43.9277 168.469 44.5723V44.6699H166.516C165.76 44.6699 165.005 44.7546 164.269 44.9304C163.586 45.0932 162.928 45.3731 162.336 45.7508C161.782 46.1089 161.32 46.5842 160.981 47.1507C160.643 47.7367 160.473 48.4073 160.48 49.0845C160.46 49.7551 160.61 50.4193 160.903 51.0183C161.19 51.5522 161.613 52.008 162.121 52.3466C162.713 52.7177 163.371 52.9716 164.055 53.0888C164.849 53.2451 165.656 53.3167 166.464 53.3102C167.102 53.3102 171.738 53.2451 171.738 51.0443V44.6765C171.842 43.2766 171.269 41.8962 170.195 40.9586ZM168.43 47.2093V50.6016C168.176 50.6472 167.896 50.6862 167.597 50.7188C166.867 50.7904 166.138 50.7904 165.409 50.7188C165.122 50.6927 164.836 50.6146 164.575 50.4844C164.335 50.3607 164.126 50.1849 163.976 49.9635C163.801 49.6705 163.723 49.3319 163.742 48.9933C163.703 48.4269 163.97 47.8799 164.445 47.5739C165.148 47.1963 165.943 47.027 166.737 47.0791H167.707L168.43 47.2093Z" fill="white"/>
</g>
<defs>
<clipPath id="clip0_145_10053">
<rect width="161.417" height="24" fill="white" transform="translate(19 30)"/>
</clipPath>
</defs>
</svg>
