<svg width="200" height="85" viewBox="0 0 200 85" fill="none" xmlns="http://www.w3.org/2000/svg">
<rect width="200" height="85" rx="20" fill="#535FE6"/>
<path d="M47 54.9647H138.929V52.5576H47V54.9647Z" fill="white"/>
<path d="M145.301 54.9647H153.195V52.5576H145.301V54.9647Z" fill="white"/>
<path d="M64.9115 48.9115H68.2035V36.5221H64.9115V48.9115ZM64.5929 32.9469C64.5929 32.3805 64.7699 31.9204 65.1593 31.531C65.5132 31.177 66.0088 31 66.5752 31C67.177 31 67.6371 31.177 67.9911 31.531C68.3451 31.885 68.5575 32.3451 68.5575 32.9469C68.5575 33.5133 68.3805 33.9735 67.9911 34.3628C67.6371 34.7168 67.1416 34.8938 66.5752 34.8938C66.0088 34.8938 65.5486 34.7168 65.1593 34.3628C64.7699 34.0088 64.5929 33.5133 64.5929 32.9469Z" fill="white"/>
<path d="M75.7787 36.4868H79.1416V38.9647H75.7787V44.9116C75.7787 45.4426 75.9203 45.8674 76.2389 46.186C76.5575 46.5045 76.9469 46.6815 77.4778 46.6815C77.938 46.6815 78.469 46.6107 79.0354 46.4691L79.4601 48.9116C78.5044 49.1594 77.584 49.301 76.6991 49.301C76.0973 49.301 75.5309 49.1948 75.0354 49.0178C74.5398 48.8408 74.115 48.5576 73.7256 48.2037C73.3716 47.8497 73.0885 47.4249 72.8761 46.9293C72.6637 46.4337 72.5929 45.9028 72.5929 45.301V39.0355H70.3274V36.5576H72.5929V32.9116H75.7433V36.4868H75.7787Z" fill="white"/>
<path d="M81.0885 39.9204C81.0885 39.3894 81.1947 38.8585 81.4425 38.3983C81.6903 37.9381 82.0088 37.5487 82.3982 37.1948C82.823 36.8762 83.3186 36.593 83.885 36.416C84.4513 36.239 85.1239 36.1328 85.7965 36.1328C86.5044 36.1328 87.2478 36.2036 87.9911 36.3452C88.7345 36.4868 89.5133 36.6992 90.292 36.9824L89.5841 39.3187C88.9823 39.0709 88.3805 38.8939 87.7788 38.7523C87.177 38.6107 86.6106 38.5399 86.0796 38.5399C85.5133 38.5399 85.0531 38.6461 84.6991 38.8939C84.3451 39.1417 84.2035 39.4602 84.2035 39.885C84.2035 40.2744 84.3805 40.5576 84.6991 40.7346C85.0177 40.9116 85.4071 41.0886 85.9027 41.2302C86.3982 41.3718 86.8938 41.5133 87.4602 41.6195C88.0265 41.7611 88.5575 41.9735 89.0177 42.2567C89.5133 42.5399 89.9027 42.9293 90.2212 43.3894C90.5398 43.885 90.7168 44.5222 90.7168 45.301C90.7168 45.8673 90.6106 46.3629 90.3628 46.8585C90.115 47.3187 89.7965 47.7434 89.3717 48.0974C88.9469 48.4514 88.4513 48.6992 87.8142 48.9116C87.2124 49.0886 86.5398 49.1948 85.8319 49.1948C84.3097 49.1948 82.6814 48.8762 80.9823 48.2036L81.6549 45.9027C83.1062 46.5045 84.4159 46.7877 85.5841 46.7877C86.1858 46.7877 86.6814 46.6461 87.0354 46.3983C87.3894 46.1505 87.5664 45.7965 87.5664 45.3364C87.5664 44.947 87.3894 44.6638 87.0708 44.4514C86.7522 44.239 86.3628 44.062 85.8673 43.9204C85.3717 43.7788 84.8761 43.6372 84.3097 43.4956C83.7434 43.3541 83.2478 43.1417 82.7522 42.8585C82.2566 42.5753 81.8673 42.2213 81.5487 41.7611C81.2301 41.3364 81.0885 40.6992 81.0885 39.9204Z" fill="white"/>
<path d="M97.3363 36.4868H100.699V38.9647H97.3363V44.9116C97.3363 45.4426 97.4779 45.8674 97.7965 46.186C98.1151 46.5045 98.5045 46.6815 99.0355 46.6815C99.4956 46.6815 100.027 46.6107 100.593 46.4691L101.018 48.9116C100.062 49.1594 99.1417 49.301 98.2567 49.301C97.6549 49.301 97.0886 49.1948 96.593 49.0178C96.0974 48.8408 95.6726 48.5576 95.2832 48.2037C94.8939 47.8497 94.6461 47.4249 94.4337 46.9293C94.2213 46.4337 94.1505 45.9028 94.1505 45.301V39.0355H91.885V36.5576H94.1505V32.9116H97.3009V36.4868H97.3363Z" fill="white"/>
<path d="M105.903 45.124C105.903 45.6195 106.115 46.0443 106.504 46.3983C106.929 46.7523 107.425 46.9293 108.027 46.9293C108.876 46.9293 109.549 46.6461 110.08 46.1151C110.611 45.5841 110.858 44.8762 110.858 44.0266V43.2833C110.257 43.1063 109.584 43.0355 108.841 43.0355C107.92 43.0355 107.212 43.2125 106.681 43.6018C106.186 43.9558 105.903 44.4868 105.903 45.124ZM102.823 45.301C102.823 43.9912 103.319 42.9647 104.31 42.2567C105.301 41.5487 106.681 41.1948 108.487 41.1948C108.876 41.1948 109.265 41.2302 109.655 41.2656C110.044 41.301 110.469 41.3718 110.858 41.4426V40.77C110.858 40.1328 110.646 39.6018 110.186 39.2125C109.726 38.8231 109.124 38.6107 108.345 38.6107C107.106 38.6107 105.761 38.8939 104.31 39.4956L103.496 37.2302C105.265 36.5222 107 36.2036 108.699 36.2036C109.478 36.2036 110.15 36.3098 110.788 36.5576C111.425 36.77 111.956 37.0886 112.416 37.5133C112.876 37.9027 113.23 38.3983 113.478 38.9647C113.726 39.531 113.867 40.1682 113.867 40.8408V45.9027C113.867 46.1859 113.938 46.3983 114.08 46.5399C114.221 46.7169 114.434 46.7877 114.717 46.7877C114.858 46.7877 114.965 46.7877 115.106 46.7523C115.212 46.7523 115.319 46.7169 115.354 46.7169L115.566 49.0886C115.283 49.124 115.035 49.1948 114.752 49.2302C114.469 49.2656 114.186 49.2656 113.867 49.2656C113.23 49.2656 112.699 49.124 112.239 48.8054C111.779 48.5222 111.46 48.0974 111.248 47.5664C110.717 48.0974 110.08 48.5222 109.407 48.8054C108.699 49.0886 107.991 49.2302 107.212 49.2302C106.575 49.2302 105.973 49.124 105.442 48.947C104.911 48.77 104.451 48.4868 104.062 48.1328C103.673 47.7788 103.389 47.3895 103.177 46.8939C102.929 46.3983 102.823 45.8673 102.823 45.301Z" fill="white"/>
<path d="M117.407 36.4514H119.956L120.345 38.1505C120.841 37.5133 121.407 37.0178 122.115 36.6638C122.823 36.3098 123.566 36.1328 124.381 36.1328C125.301 36.1328 126.08 36.3452 126.788 36.7346C127.46 37.124 127.991 37.6903 128.345 38.3983C128.912 37.6549 129.584 37.0886 130.327 36.6992C131.071 36.3098 131.885 36.1328 132.805 36.1328C133.478 36.1328 134.08 36.239 134.646 36.4514C135.212 36.6638 135.708 36.9824 136.097 37.4071C136.522 37.7965 136.841 38.2921 137.053 38.8585C137.266 39.4248 137.407 40.0266 137.407 40.6992V48.9116H134.186V41.2302C134.186 40.5222 133.973 39.9558 133.513 39.4956C133.053 39.0709 132.487 38.8231 131.779 38.8231C130.965 38.8231 130.292 39.1063 129.761 39.6726C129.23 40.239 128.982 40.947 128.982 41.8673V48.9116H125.761V41.2302C125.761 40.5222 125.549 39.9558 125.124 39.4956C124.699 39.0709 124.133 38.8231 123.425 38.8231C122.575 38.8231 121.903 39.1063 121.372 39.6726C120.841 40.239 120.593 40.947 120.593 41.8673V48.9116H117.372V36.4514H117.407Z" fill="white"/>
<path d="M149.655 42.6461C149.655 42.0797 149.584 41.5487 149.407 41.0532C149.265 40.5576 149.018 40.1328 148.734 39.8142C148.451 39.4602 148.133 39.2125 147.743 39.0001C147.354 38.7877 146.929 38.7169 146.469 38.7169C145.619 38.7169 144.947 39.0001 144.38 39.6018C143.85 40.1682 143.566 40.9116 143.566 41.8319V43.4956C143.566 43.9558 143.637 44.3806 143.779 44.7346C143.92 45.124 144.133 45.4425 144.38 45.7257C144.628 46.0089 144.947 46.2213 145.301 46.3629C145.655 46.5045 146.044 46.5753 146.469 46.5753C146.929 46.5753 147.354 46.4691 147.743 46.2921C148.133 46.1151 148.451 45.8319 148.734 45.4779C149.018 45.124 149.23 44.6992 149.407 44.239C149.584 43.7788 149.655 43.2125 149.655 42.6461ZM140.451 36.4514H143L143.389 38.0443C143.85 37.4425 144.38 36.9824 145.053 36.6284C145.726 36.3098 146.469 36.1328 147.283 36.1328C148.097 36.1328 148.841 36.3098 149.549 36.6284C150.221 36.947 150.823 37.4071 151.319 37.9735C151.814 38.5399 152.204 39.2125 152.487 40.0266C152.77 40.8054 152.911 41.6903 152.911 42.6461C152.911 43.6018 152.77 44.4868 152.487 45.2656C152.204 46.0443 151.814 46.7523 151.319 47.3187C150.823 47.885 150.221 48.3452 149.549 48.6638C148.876 48.9824 148.097 49.1594 147.283 49.1594C146.54 49.1594 145.832 49.0178 145.23 48.7346C144.593 48.4514 144.062 48.0266 143.637 47.4602V55.0001H140.451V36.4514Z" fill="white"/>
<path d="M57.8319 45.7257C57.3363 46.2213 56.6637 46.4337 55.8142 46.4337H51.8496V41.3009H55.8142C56.6283 41.3009 57.3009 41.5487 57.8319 42.0089C58.3274 42.4691 58.5752 43.1062 58.5752 43.8496C58.6106 44.6284 58.3628 45.2655 57.8319 45.7257ZM51.8496 34.3629H55.4956C56.2389 34.3629 56.8407 34.5753 57.3363 35.0355C57.8319 35.4602 58.0443 36.062 58.0443 36.77C58.0443 37.4779 57.7965 38.0443 57.3363 38.4691C56.8407 38.8939 56.2389 39.1062 55.4956 39.1062H51.8496V34.3629ZM61.0885 41.6195C60.5575 40.8762 59.8496 40.3452 58.9646 40.0266C59.6726 39.708 60.2035 39.2478 60.6283 38.6107C61.0531 37.9735 61.2655 37.2301 61.2655 36.3806C61.2655 35.708 61.1239 35.1063 60.8761 34.5753C60.6283 34.0089 60.2389 33.5487 59.7788 33.1593C59.3186 32.77 58.7522 32.4514 58.115 32.239C57.4779 32.0266 56.7699 31.9204 55.9911 31.9204H47V34.1859C48.3805 34.1859 49.4779 35.3186 49.4779 36.6992C49.4779 38.0797 48.3805 39.2124 47 39.2124V41.2655C48.3805 41.2655 49.4779 42.3983 49.4779 43.7788V44.1682C49.4779 45.5487 48.3805 46.6815 47 46.6815V48.947H56.3805C57.1947 48.947 57.9027 48.8408 58.5752 48.593C59.2478 48.3806 59.8142 48.062 60.3097 47.6372C60.8053 47.2124 61.1947 46.7169 61.4425 46.1505C61.7257 45.5841 61.8673 44.947 61.8673 44.239C61.8673 43.2124 61.6195 42.3629 61.0885 41.6195Z" fill="white"/>
</svg>
