<svg width="200" height="85" viewBox="0 0 200 85" fill="none" xmlns="http://www.w3.org/2000/svg">
<rect width="200" height="85" rx="20" fill="#535FE6"/>
<g clip-path="url(#clip0_145_10023)">
<path d="M47.3399 41.0845L52.0013 36.4252L56.6645 41.0883L59.3752 38.3757L52.0013 31L44.6273 38.3738L47.3399 41.0845Z" fill="white"/>
<path d="M39.999 43.0002L42.7107 40.2887L45.4223 43.0002L42.7107 45.7118L39.999 43.0002Z" fill="white"/>
<path d="M47.34 44.9155L52.0013 49.5767L56.6645 44.9136L59.3771 47.6224L59.3752 47.6243L52.0013 55L44.6273 47.6281L44.6235 47.6243L47.34 44.9155Z" fill="white"/>
<path d="M58.5754 43.0012L61.2871 40.2896L63.9987 43.0012L61.2871 45.7128L58.5754 43.0012Z" fill="white"/>
<path d="M54.7517 42.999L52.0012 40.2466L49.9672 42.2805L49.7321 42.5137L49.2506 42.9952L49.2468 42.999L49.2506 43.0047L52.0012 45.7533L54.7517 43.0009L54.7536 42.999H54.7517Z" fill="white"/>
<path d="M68.2295 36.8154H74.1286C75.5921 36.8154 76.6991 37.1945 77.4498 37.9528C77.7326 38.2329 77.9555 38.5675 78.1051 38.9364C78.2547 39.3052 78.3277 39.7006 78.3198 40.0986V40.1346C78.3249 40.4606 78.2795 40.7854 78.1853 41.0976C78.1013 41.3662 77.9794 41.6216 77.8232 41.8558C77.6776 42.0767 77.5015 42.2758 77.3 42.4472C77.1032 42.6166 76.8876 42.7629 76.6574 42.8832C77.3211 43.1144 77.918 43.5049 78.3957 44.0205C78.8178 44.5008 79.0288 45.1642 79.0288 46.0109V46.0469C79.0408 46.5757 78.9257 47.0997 78.6933 47.5748C78.468 48.0125 78.1378 48.3876 77.7322 48.6666C77.2736 48.9741 76.763 49.1957 76.2252 49.3206C75.5862 49.4721 74.9312 49.5453 74.2746 49.5386H68.2295V36.8154ZM73.5372 41.96C74.0476 41.9847 74.5555 41.8749 75.0101 41.6416C75.1874 41.538 75.3321 41.3869 75.428 41.2053C75.5238 41.0238 75.5668 40.819 75.5523 40.6142V40.5782C75.5616 40.3895 75.5233 40.2015 75.4408 40.0315C75.3583 39.8615 75.2343 39.7151 75.0802 39.6057C74.7656 39.3821 74.3113 39.2702 73.7173 39.2702H70.9573V41.96H73.5372ZM74.2822 47.0876C74.7907 47.1161 75.2968 46.9998 75.7418 46.7521C75.9152 46.6407 76.0555 46.4849 76.1482 46.3009C76.2409 46.1168 76.2825 45.9113 76.2688 45.7057V45.6697C76.2756 45.4743 76.2344 45.2802 76.1488 45.1044C76.0633 44.9286 75.9359 44.7764 75.7778 44.6613C75.4518 44.4085 74.9248 44.2821 74.1969 44.2821H70.9573V47.0876H74.2822Z" fill="white"/>
<path d="M82.5433 36.8154H85.3432V49.5424H82.5433V36.8154Z" fill="white"/>
<path d="M89.5798 36.8154H92.1617L98.1291 44.648V36.8154H100.893V49.5424H98.5101L92.3474 41.452V49.5424H89.5798V36.8154Z" fill="white"/>
<path d="M109.37 36.7249H111.948L117.402 49.5428H114.479L113.315 46.688H107.933L106.769 49.5428H103.914L109.37 36.7249ZM112.316 44.2162L110.621 40.0876L108.934 44.2162H112.316Z" fill="white"/>
<path d="M120.429 36.8154H123.011L128.974 44.648V36.8154H131.738V49.5424H129.355L123.193 41.452V49.5424H120.429V36.8154Z" fill="white"/>
<path d="M141.815 49.7663C140.923 49.7739 140.038 49.6011 139.215 49.2582C138.439 48.938 137.735 48.4658 137.145 47.8693C136.555 47.2729 136.09 46.5644 135.778 45.7855C135.448 44.9708 135.282 44.0996 135.287 43.2208V43.1848C135.272 41.4527 135.939 39.7841 137.143 38.5387C137.735 37.9304 138.444 37.4481 139.228 37.1208C140.08 36.7678 140.995 36.5917 141.918 36.6033C142.463 36.5993 143.008 36.6481 143.544 36.7493C144.003 36.836 144.451 36.9701 144.882 37.1492C145.274 37.3139 145.646 37.5211 145.991 37.7672C146.329 38.0072 146.646 38.2748 146.939 38.5671L145.159 40.622C144.704 40.2024 144.194 39.8471 143.643 39.5661C143.101 39.3071 142.507 39.1773 141.906 39.187C141.407 39.1817 140.912 39.2827 140.454 39.4834C139.997 39.684 139.587 39.9798 139.252 40.3509C138.921 40.7211 138.661 41.1499 138.487 41.6152C138.304 42.1071 138.212 42.6279 138.216 43.1526V43.1886C138.214 43.7124 138.306 44.2324 138.487 44.724C138.659 45.1911 138.916 45.6223 139.245 45.9959C139.577 46.3717 139.985 46.6718 140.443 46.8758C140.901 47.0799 141.397 47.1832 141.899 47.1788C142.537 47.1989 143.171 47.0615 143.743 46.7788C144.288 46.4817 144.792 46.1146 145.243 45.687L147.024 47.4878C146.71 47.8292 146.37 48.1461 146.007 48.4356C145.65 48.7175 145.263 48.9585 144.852 49.154C144.415 49.3599 143.954 49.512 143.48 49.607C142.932 49.7169 142.374 49.7702 141.815 49.7663Z" fill="white"/>
<path d="M150.328 36.8154H159.907V39.3062H153.083V41.888H159.092V44.3788H153.092V47.0516H160.002V49.5424H150.334L150.328 36.8154Z" fill="white"/>
</g>
<defs>
<clipPath id="clip0_145_10023">
<rect width="120" height="24" fill="white" transform="translate(40 31)"/>
</clipPath>
</defs>
</svg>
