<svg width="200" height="85" viewBox="0 0 200 85" fill="none" xmlns="http://www.w3.org/2000/svg">
<rect width="200" height="85" rx="20" fill="#535FE6"/>
<g clip-path="url(#clip0_145_9993)">
<path fill-rule="evenodd" clip-rule="evenodd" d="M42.6296 32.1377H46.9189L43.5838 40.2509C43.5838 40.2509 41.8404 40.2226 41.3073 38.7075C41.158 38.2576 41.1454 37.7739 41.2713 37.3169L42.6296 32.1377Z" fill="white"/>
<path d="M59.2654 32.3113L53.8112 32.217L55.0386 28.1906C55.2679 27.4432 55.128 26.6319 54.6615 26.0032C54.1949 25.3745 53.4567 25.0024 52.671 25H47.693L42.0017 45.3302C42.0017 45.3302 39.9623 54.0245 47.693 54.8113C47.693 54.8113 59.9142 57.2962 63.8355 42.6094C63.8355 42.6094 65.9052 33.7264 59.2654 32.3113ZM55.5376 42.3943C55.5376 42.3943 55.3194 46.1453 52.4737 46.8038C52.0536 46.9088 51.6096 46.8634 51.2197 46.6755C50.7739 46.4491 50.3129 45.9792 50.3243 44.9943C50.3317 44.7096 50.3777 44.4272 50.4609 44.1547L51.5119 40.2509H54.3803C54.3803 40.2509 55.6798 40.6717 55.5376 42.3943Z" fill="white"/>
<path fill-rule="evenodd" clip-rule="evenodd" d="M64.0973 38.5152C63.5756 32.5472 59.2654 32.3114 59.2654 32.3114L53.8112 32.217L51.4683 40.2982H54.3291C54.8546 40.3265 55.8126 41.1887 55.5015 42.7152" fill="white"/>
<path fill-rule="evenodd" clip-rule="evenodd" d="M122.576 53.4879C122.975 52.0248 123.345 50.6696 123.715 49.3154C124.354 46.9756 124.992 44.6354 125.632 42.2961C125.789 41.7249 125.996 41.164 126.102 40.5844C126.179 40.1635 126.387 40.0849 126.751 40.1137C127.047 40.1365 127.347 40.1333 127.644 40.1147C128.538 40.0593 129.336 40.178 129.624 41.1193C130.402 40.8111 131.11 40.4056 131.869 40.2562C133.425 39.9485 134.953 39.9648 136.119 41.3418C136.203 41.4409 136.557 41.4223 136.712 41.332C138.426 40.3349 140.274 39.9927 142.23 40.1528C143.705 40.2739 144.869 41.4586 145.196 42.9032C145.544 44.445 145.203 45.8863 144.821 47.3364C144.283 49.3778 143.703 51.4075 143.136 53.4609H139.245C139.665 51.9265 140.092 50.4331 140.482 48.9304C140.775 47.8029 141.046 46.6688 141.273 45.5264C141.338 45.1987 141.281 44.81 141.167 44.4906C140.841 43.5833 139.881 43.2733 138.88 43.6913C137.558 44.2448 137.015 45.3928 136.654 46.6507C136.063 48.7167 135.515 50.7953 134.946 52.8674C134.892 53.0638 134.824 53.2556 134.757 53.4651H130.893C131.245 52.1654 131.598 50.9038 131.927 49.6366C132.266 48.3299 132.622 47.0254 132.888 45.7038C132.975 45.275 132.88 44.7704 132.739 44.3435C132.397 43.3105 130.714 43.4055 129.939 43.9962C128.985 44.7243 128.534 45.7462 128.232 46.8588C127.669 48.9313 127.115 51.0062 126.538 53.0745C126.494 53.2342 126.3 53.4665 126.171 53.4698C125.001 53.5005 123.831 53.4879 122.576 53.4879Z" fill="white"/>
<path fill-rule="evenodd" clip-rule="evenodd" d="M75.8188 43.608C74.9441 43.6256 74.3262 43.9186 73.7751 44.6118C72.893 45.7207 72.5704 47.0364 72.4629 48.4052C72.4063 49.1284 72.8958 49.8603 73.4692 49.9577C74.2289 50.0864 75.0016 50.0578 75.6065 49.4865C76.9178 48.2488 77.4796 46.694 77.3647 44.9233C77.3035 43.9763 76.7732 43.5896 75.8188 43.608ZM74.3893 40.9794C75.0943 40.7214 75.7113 40.3887 76.3662 40.2779C77.831 40.0301 79.2911 39.9724 80.4328 41.2175C81.034 41.8737 81.3714 42.679 81.3997 43.5176C81.5151 46.9441 80.4958 49.9498 77.6154 52.0275C75.5022 53.5518 73.1011 53.8878 70.6083 53.0225C68.8487 52.4119 68.0139 50.607 68.4191 48.9212C69.1408 45.9201 69.9705 42.9449 70.7631 39.9613C71.1168 38.6304 71.4899 37.3045 71.858 35.9639C72.5699 35.9639 73.2574 35.9108 73.9332 35.9754C75.0266 36.0802 75.4804 36.849 75.1671 37.9003C74.9052 38.7808 74.6748 39.6706 74.4366 40.5576C74.4046 40.6775 74.4074 40.8068 74.3893 40.9794Z" fill="white"/>
<mask id="mask0_145_9993" style="mask-type:alpha" maskUnits="userSpaceOnUse" x="145" y="36" width="14" height="18">
<path d="M145.912 36.0027H158.995V53.5106H145.912V36.0027Z" fill="white"/>
</mask>
<g mask="url(#mask0_145_9993)">
<path fill-rule="evenodd" clip-rule="evenodd" d="M153.407 43.6365C152.213 43.5618 151.514 44.2936 150.959 45.1864C150.362 46.1473 150.106 47.2336 150.026 48.3505C149.948 49.4275 150.597 50.1425 151.661 50.0437C152.202 49.9936 152.821 49.7876 153.224 49.4433C154.488 48.3644 154.933 46.8596 154.978 45.2694C155.003 44.4026 154.648 43.553 153.407 43.6365ZM149.413 36.0173C150.21 36.0173 150.994 35.9779 151.772 36.0285C152.547 36.0781 152.997 37.0303 152.735 37.9435C152.481 38.8302 152.23 39.7179 151.985 40.6074C151.953 40.7239 151.969 40.8529 151.962 40.9935C152.651 40.7448 153.284 40.4121 153.955 40.2956C155.479 40.0311 156.986 40.0209 158.113 41.3577C158.657 42.0036 158.951 42.7818 158.984 43.5985C159.105 46.622 158.22 49.2887 155.999 51.4418C153.919 53.4589 150.21 54.1099 147.804 52.9086C146.315 52.1657 145.729 50.8553 145.961 49.3751C146.245 47.5593 146.742 45.7729 147.207 43.9901C147.832 41.5953 148.514 39.2154 149.172 36.8298C149.245 36.5649 149.328 36.3027 149.413 36.0173Z" fill="white"/>
</g>
<path fill-rule="evenodd" clip-rule="evenodd" d="M103.375 53.4792C103.961 51.3498 104.542 49.313 105.074 47.2633C105.257 46.5563 105.464 45.8067 105.407 45.0964C105.287 43.624 104.359 43.324 102.998 43.7796C101.603 44.2468 101.102 45.5256 100.739 46.816C100.151 48.9074 99.603 51.0095 99.012 53.1C98.9686 53.2556 98.7212 53.457 98.5639 53.4611C97.4291 53.4921 96.2929 53.4778 95.0675 53.4778C95.2608 52.7222 95.4288 52.0165 95.6221 51.3174C96.2663 48.9931 96.9245 46.6725 97.5682 44.3472C98.2315 41.9507 98.8818 39.5505 99.5433 37.153C99.8747 35.9524 99.8803 35.9538 101.127 35.9473C101.332 35.9459 101.538 35.9367 101.743 35.9524C102.998 36.0487 103.506 36.7849 103.167 38.0022C102.929 38.8541 102.692 39.7056 102.462 40.5598C102.426 40.6946 102.427 40.839 102.407 41.0025C103.107 40.7483 103.739 40.4093 104.41 40.2973C105.953 40.0394 107.483 40.0209 108.6 41.4053C109.153 42.0896 109.387 42.9031 109.462 43.7606C109.616 45.5548 108.987 47.2156 108.539 48.9056C108.179 50.2585 107.799 51.6058 107.445 52.9602C107.347 53.3347 107.181 53.5028 106.756 53.4898C105.658 53.4579 104.559 53.4792 103.375 53.4792Z" fill="white"/>
<path fill-rule="evenodd" clip-rule="evenodd" d="M116.136 40.4762C115.893 41.3809 115.669 42.1955 115.452 43.012C114.967 44.8336 114.458 46.6496 114.009 48.48C113.659 49.907 114.998 50.5418 115.926 50.3922C117.258 50.1765 118.15 49.4191 118.515 48.0971C119.175 45.7104 119.833 43.3224 120.509 40.9399C120.559 40.7634 120.754 40.499 120.887 40.4952C122.058 40.4599 123.231 40.4748 124.473 40.4748C124.224 41.4093 124.007 42.2643 123.768 43.1128C123.218 45.0682 122.744 47.0506 122.078 48.9665C121.223 51.4256 119.39 52.8987 116.869 53.5474C115.244 53.9656 113.632 54.0325 112.047 53.3964C110.64 52.8313 109.936 51.7858 109.87 50.2713C109.818 49.0762 110.189 47.9711 110.492 46.848C111.026 44.8684 111.564 42.8893 112.119 40.9153C112.166 40.7494 112.345 40.4985 112.468 40.4952C113.657 40.4632 114.847 40.4762 116.136 40.4762Z" fill="white"/>
<path fill-rule="evenodd" clip-rule="evenodd" d="M94.2614 40.6831H96.5852C96.5324 42.5301 95.3225 43.6748 93.438 43.6614C93.1586 44.645 92.868 45.6476 92.5891 46.654C92.3282 47.5951 92.0831 48.5398 91.825 49.4819C91.6127 50.2564 91.7073 50.3813 92.5316 50.3845C92.8833 50.3859 93.2355 50.391 93.5872 50.3975C93.6224 50.398 93.6567 50.4183 93.7943 50.4623C93.6474 51.0452 93.4987 51.637 93.3476 52.2283C93.3342 52.2815 93.3017 52.3301 93.2855 52.3824C92.9417 53.4896 92.9412 53.509 91.7573 53.4859C90.7045 53.465 89.6494 53.4294 88.6017 53.3355C87.8645 53.2689 87.4099 52.7974 87.4878 52.0715C87.5971 51.0531 87.8033 50.0371 88.0665 49.0455C88.9034 45.8975 89.7861 42.761 90.6503 39.6199C90.9385 38.5719 91.2124 37.5198 91.5247 36.4788C91.5669 36.3386 91.7898 36.1665 91.9366 36.159C92.5464 36.1262 93.1613 36.1188 93.7698 36.1627C94.6896 36.2294 95.2034 36.9905 94.9755 37.883C94.7447 38.7857 94.5149 39.6888 94.2614 40.6831Z" fill="white"/>
<path fill-rule="evenodd" clip-rule="evenodd" d="M80.8392 53.2844C81.1042 52.2908 81.3441 51.3717 81.5946 50.4562C82.2445 48.0802 82.898 45.7051 83.5525 43.3314C83.7673 42.5514 83.9728 41.7682 84.2242 41.0002C84.2726 40.8536 84.5106 40.6825 84.67 40.6738C85.2804 40.6386 85.8949 40.6493 86.5066 40.6733C87.3685 40.7071 88.0025 41.482 87.7891 42.3086C87.2973 44.2121 86.7618 46.1041 86.2412 47.9997C85.8228 49.5232 85.3757 51.0392 84.9931 52.5706C84.8588 53.106 84.6561 53.3288 84.069 53.2992C83.0194 53.2465 81.9651 53.2844 80.8392 53.2844ZM84.8821 38.2291C84.8803 36.8226 86.4124 35.5391 87.8 35.7851C88.5772 35.9229 89.0281 36.4832 88.9951 37.2688C88.9379 38.6128 87.4216 39.8408 86.0852 39.6254C85.2954 39.4978 84.8831 39.0192 84.8821 38.2291Z" fill="white"/>
<path fill-rule="evenodd" clip-rule="evenodd" d="M75.8603 43.6798C76.8169 43.6614 77.3485 44.0482 77.4098 44.9955C77.525 46.7667 76.9619 48.3219 75.6475 49.56C75.0411 50.1315 74.2666 50.1601 73.5051 50.0313C72.9304 49.9339 72.4397 49.2018 72.4964 48.4784C72.6042 47.1092 72.9276 45.7931 73.8118 44.6839C74.3642 43.9905 74.9835 43.6974 75.8603 43.6798Z" fill="#535FE6"/>
<path fill-rule="evenodd" clip-rule="evenodd" d="M153.452 43.6848C154.687 43.6019 155.04 44.4505 155.015 45.3163C154.971 46.9047 154.528 48.4079 153.271 49.4855C152.87 49.8294 152.255 50.0352 151.716 50.0853C150.658 50.1835 150.012 49.4697 150.09 48.394C150.17 47.2783 150.424 46.1933 151.019 45.2334C151.57 44.3416 152.265 43.6107 153.452 43.6848Z" fill="#535FE6"/>
</g>
<defs>
<clipPath id="clip0_145_9993">
<rect width="118" height="30" fill="white" transform="translate(41 25)"/>
</clipPath>
</defs>
</svg>
