<svg width="200" height="85" viewBox="0 0 200 85" fill="none" xmlns="http://www.w3.org/2000/svg">
<rect width="200" height="85" rx="20" fill="#535FE6"/>
<g clip-path="url(#clip0_145_10080)">
<path fill-rule="evenodd" clip-rule="evenodd" d="M63.4911 42.981L71.1786 50.6697L76.0306 45.8179C76.8874 44.9607 78.2775 44.9609 79.1344 45.8179C79.9913 46.6748 79.9915 48.0646 79.1344 48.9214L72.7305 55.3253C71.8775 56.1782 70.472 56.1705 69.627 55.3253L60.3894 46.0866L60.3893 51.579C60.3893 52.7847 59.4004 53.7739 58.1943 53.7739C56.9825 53.7739 56 52.791 56 51.5792V34.3833C56 33.1715 56.9825 32.1886 58.1943 32.1886C59.4064 32.1886 60.3893 33.1718 60.3893 34.3833V39.8757L69.627 30.6368C70.472 29.7916 71.8775 29.7838 72.7305 30.6368L79.1344 37.0406C79.9914 37.8975 79.9913 39.2873 79.1344 40.1442C78.2775 41.001 76.8874 41.0013 76.0306 40.1442L71.1786 35.2924L63.4911 42.9811L63.4911 42.981ZM71.1819 40.7841C72.3949 40.7841 73.3787 41.7679 73.3787 42.9808C73.3787 44.194 72.3949 45.1778 71.1819 45.1778C69.9688 45.1778 68.985 44.194 68.985 42.9808C68.985 41.7679 69.9688 40.7841 71.1819 40.7841Z" fill="white"/>
<path fill-rule="evenodd" clip-rule="evenodd" d="M88.7663 30C88.1553 30 87.6482 30.5073 87.6482 31.1181L87.6486 44.6024C87.6486 45.2153 88.1535 45.7208 88.7667 45.7208C89.3798 45.7208 89.8847 45.2155 89.8847 44.6024L89.8843 31.118C89.8843 30.5057 89.3786 30 88.7663 30V30ZM97.4548 30.3257C97.023 29.8939 96.3057 29.8935 95.8738 30.3254L90.872 35.3277C90.5007 35.699 90.5503 36.2761 90.7154 36.5612L95.6932 45.1619C95.9941 45.6817 96.6966 45.88 97.2212 45.5713C97.7463 45.2623 97.9377 44.5735 97.6324 44.046L93.1166 36.2449L97.4548 31.9066C97.8884 31.4729 97.8885 30.7594 97.4548 30.3257V30.3257Z" fill="white"/>
<path fill-rule="evenodd" clip-rule="evenodd" d="M100.507 34.543C99.8962 34.543 99.389 35.0504 99.389 35.6608L99.3887 41.5591C99.3886 43.8561 101.253 45.7212 103.551 45.7211L107.056 45.7208C107.665 45.7207 108.174 45.2125 108.174 44.6029L108.174 35.6608C108.174 35.0459 107.671 34.543 107.056 34.543C106.445 34.543 105.938 35.0501 105.938 35.6608V43.4847L103.551 43.4851C102.487 43.4852 101.625 42.6227 101.625 41.5591L101.625 35.6608C101.625 35.0487 101.119 34.543 100.507 34.543V34.543Z" fill="white"/>
<path fill-rule="evenodd" clip-rule="evenodd" d="M119.865 31.1182C119.865 30.5073 119.358 30 118.747 30H114.505C112.207 30 110.343 31.8641 110.343 34.162V41.5589C110.343 43.8568 112.207 45.7208 114.505 45.7208H118.747C119.359 45.7208 119.865 45.2149 119.865 44.6028C119.865 43.9919 119.358 43.4847 118.747 43.4847L114.505 43.4848C113.441 43.4848 112.579 42.6223 112.579 41.5588V34.162C112.579 33.0985 113.441 32.2361 114.505 32.2361L118.747 32.2362C119.359 32.2362 119.865 31.7303 119.865 31.1182L119.865 31.1182Z" fill="white"/>
<path fill-rule="evenodd" clip-rule="evenodd" d="M132.922 30C132.308 30 131.803 30.5048 131.803 31.1182C131.803 31.7314 132.308 32.2362 132.922 32.2362C133.535 32.2362 134.04 31.7313 134.04 31.1182C134.04 30.505 133.535 30 132.922 30V30ZM132.922 34.5433C132.308 34.5433 131.803 35.048 131.803 35.6612V44.6028C131.803 45.216 132.308 45.7208 132.922 45.7208C133.535 45.7208 134.04 45.2158 134.04 44.6028V35.6612C134.04 35.049 133.534 34.5433 132.922 34.5433Z" fill="white"/>
<path fill-rule="evenodd" clip-rule="evenodd" d="M143.502 45.7203C144.113 45.7203 144.62 45.213 144.62 44.6024L144.62 38.7044C144.62 36.4066 142.757 34.5423 140.458 34.5425L136.953 34.5428C136.344 34.5429 135.835 35.0511 135.835 35.6607V44.6024C135.835 45.2173 136.338 45.7203 136.953 45.7203C137.564 45.7203 138.071 45.2133 138.071 44.6024V36.7789L140.458 36.7785C141.522 36.7783 142.385 37.641 142.384 38.7045L142.384 44.6024C142.384 45.2145 142.89 45.7203 143.502 45.7203V45.7203Z" fill="white"/>
<path fill-rule="evenodd" clip-rule="evenodd" d="M121.474 38.7041C121.474 36.414 123.325 34.5426 125.612 34.5425L125.89 34.5427C128.168 34.5446 130.008 36.4209 130.008 38.7041V41.559C130.008 43.8423 128.168 45.7185 125.89 45.7204L125.612 45.7207C123.325 45.7226 121.474 43.849 121.474 41.559V38.7041V38.7041ZM127.772 38.7042C127.772 37.642 126.912 36.7782 125.85 36.7782H125.631C124.57 36.7782 123.709 37.6423 123.709 38.7042V41.559C123.709 42.6207 124.57 43.4849 125.631 43.4849H125.85C126.912 43.4849 127.772 42.6211 127.772 41.559V38.7042Z" fill="white"/>
<path d="M87.6481 49.2621H90.5096V49.5413H89.2183V54.1476H88.9392V49.5413H87.6481V49.2621H87.6481ZM92.8825 51.7048C92.8825 51.4489 92.8138 51.2512 92.6766 51.1116C92.5393 50.9721 92.352 50.9023 92.1147 50.9023C91.8914 50.9023 91.7076 50.9721 91.5634 51.1116C91.4192 51.2512 91.347 51.4489 91.347 51.7048V54.1476H91.0679V49.2621H91.347V51.0209C91.4401 50.9185 91.5541 50.8266 91.6891 50.7452C91.8239 50.6638 91.9659 50.6231 92.1147 50.6231C92.2636 50.6231 92.402 50.6487 92.53 50.6998C92.6579 50.751 92.7685 50.8243 92.8615 50.9197C92.9546 51.0151 93.0278 51.1291 93.0813 51.2616C93.1349 51.3942 93.1617 51.542 93.1617 51.7048V54.1476H92.8825V51.7048L92.8825 51.7048ZM94.5575 52.4027H95.046C95.2694 52.4027 95.4532 52.333 95.5975 52.1934C95.7416 52.0538 95.8138 51.8793 95.8138 51.6699C95.8138 51.4187 95.7416 51.2279 95.5975 51.0976C95.4532 50.9674 95.2694 50.9023 95.046 50.9023C94.8088 50.9023 94.6215 50.9674 94.4842 51.0976C94.3469 51.2279 94.2783 51.4187 94.2783 51.6699V53.1007C94.2783 53.3566 94.3469 53.5544 94.4842 53.6939C94.6215 53.8335 94.8088 53.9033 95.046 53.9033C95.3066 53.9033 95.5183 53.801 95.6811 53.5963L95.9045 53.7428C95.8115 53.8778 95.6882 53.9848 95.5346 54.0638C95.3811 54.1429 95.2182 54.1824 95.046 54.1824C94.8972 54.1824 94.7587 54.1569 94.6308 54.1058C94.5028 54.0546 94.3923 53.9824 94.2992 53.8894C94.2063 53.7963 94.1329 53.6823 94.0794 53.5473C94.0259 53.4125 93.9992 53.2635 93.9992 53.1007V51.7048C93.9992 51.5466 94.0259 51.4013 94.0794 51.2687C94.1329 51.136 94.2063 51.0221 94.2992 50.9266C94.3923 50.8313 94.5028 50.7568 94.6308 50.7033C94.7587 50.6498 94.8972 50.6231 95.046 50.6231C95.1903 50.6231 95.3252 50.6498 95.4508 50.7033C95.5765 50.7568 95.687 50.8313 95.7823 50.9266C95.8778 51.0221 95.9533 51.136 96.0091 51.2687C96.065 51.4013 96.0929 51.5466 96.0929 51.7048C96.0929 51.8397 96.065 51.9665 96.0091 52.0852C95.9533 52.2039 95.8778 52.3074 95.7823 52.3958C95.687 52.4842 95.5765 52.554 95.4508 52.6051C95.3252 52.6563 95.1903 52.682 95.046 52.682H94.5575V52.4027V52.4027ZM99.9457 49.5413V54.1476H99.6664V49.2621H101.237C101.395 49.2621 101.544 49.2923 101.683 49.3528C101.823 49.4133 101.945 49.4959 102.05 49.6006C102.155 49.7053 102.237 49.8275 102.298 49.967C102.358 50.1067 102.388 50.2671 102.388 50.4486C102.388 50.5835 102.358 50.7208 102.298 50.8603C102.237 50.9999 102.155 51.1221 102.05 51.2268C101.945 51.3314 101.823 51.4141 101.683 51.4746C101.544 51.5351 101.395 51.5653 101.237 51.5653H100.225V51.2861H101.237C101.358 51.2861 101.471 51.2628 101.575 51.2163C101.68 51.1698 101.772 51.107 101.851 51.0279C101.93 50.9487 101.993 50.8569 102.039 50.7522C102.086 50.6475 102.109 50.5463 102.109 50.4486C102.109 50.3043 102.086 50.1799 102.039 50.0752C101.993 49.9705 101.93 49.8786 101.851 49.7995C101.772 49.7204 101.68 49.6575 101.575 49.611C101.471 49.5646 101.358 49.5413 101.237 49.5413H99.9456L99.9457 49.5413ZM103.61 52.4027H104.098C104.322 52.4027 104.505 52.333 104.65 52.1934C104.794 52.0538 104.866 51.8793 104.866 51.6699C104.866 51.4187 104.794 51.2279 104.65 51.0976C104.505 50.9674 104.322 50.9023 104.098 50.9023C103.861 50.9023 103.674 50.9674 103.536 51.0976C103.399 51.2279 103.331 51.4187 103.331 51.6699V53.1007C103.331 53.3566 103.399 53.5544 103.536 53.6939C103.674 53.8335 103.861 53.9033 104.098 53.9033C104.359 53.9033 104.571 53.801 104.733 53.5963L104.957 53.7428C104.864 53.8778 104.74 53.9848 104.587 54.0638C104.433 54.1429 104.27 54.1824 104.098 54.1824C103.949 54.1824 103.811 54.1569 103.683 54.1058C103.555 54.0546 103.445 53.9824 103.352 53.8894C103.258 53.7963 103.185 53.6823 103.132 53.5473C103.078 53.4125 103.051 53.2635 103.051 53.1007V51.7048C103.051 51.5466 103.078 51.4013 103.132 51.2687C103.185 51.136 103.258 51.0221 103.352 50.9266C103.445 50.8313 103.555 50.7568 103.683 50.7033C103.811 50.6498 103.949 50.6231 104.098 50.6231C104.243 50.6231 104.377 50.6498 104.503 50.7033C104.629 50.7568 104.739 50.8313 104.835 50.9266C104.93 51.0221 105.006 51.136 105.061 51.2687C105.117 51.4013 105.145 51.5466 105.145 51.7048C105.145 51.8397 105.117 51.9665 105.061 52.0852C105.006 52.2039 104.93 52.3074 104.835 52.3958C104.739 52.4842 104.629 52.554 104.503 52.6051C104.377 52.6563 104.243 52.682 104.098 52.682H103.61V52.4027V52.4027ZM106.939 54.1825C106.79 54.1825 106.652 54.1557 106.524 54.1023C106.396 54.0488 106.285 53.9743 106.192 53.879C106.099 53.7835 106.026 53.6695 105.972 53.537C105.919 53.4043 105.892 53.259 105.892 53.1007V51.7048C105.892 51.542 105.919 51.3942 105.972 51.2616C106.026 51.1291 106.099 51.0151 106.192 50.9197C106.285 50.8243 106.396 50.751 106.524 50.6998C106.652 50.6487 106.79 50.6231 106.939 50.6231C107.083 50.6231 107.218 50.6487 107.344 50.6998C107.469 50.751 107.58 50.8243 107.675 50.9197C107.771 51.0151 107.846 51.1291 107.902 51.2616C107.958 51.3942 107.986 51.542 107.986 51.7048V53.1007C107.986 53.259 107.958 53.4043 107.902 53.537C107.846 53.6695 107.771 53.7835 107.675 53.879C107.58 53.9743 107.469 54.0488 107.344 54.1023C107.218 54.1557 107.083 54.1825 106.939 54.1825ZM106.171 53.1007C106.171 53.352 106.24 53.5485 106.377 53.6905C106.514 53.8324 106.702 53.9033 106.939 53.9033C107.162 53.9033 107.346 53.8324 107.49 53.6905C107.634 53.5485 107.707 53.352 107.707 53.1007V51.7048C107.707 51.4489 107.634 51.2512 107.49 51.1116C107.346 50.9721 107.162 50.9023 106.939 50.9023C106.702 50.9023 106.514 50.9721 106.377 51.1116C106.24 51.2512 106.171 51.4489 106.171 51.7048V53.1007ZM109.417 53.7218C109.482 53.7684 109.556 53.8045 109.64 53.8301C109.724 53.8557 109.812 53.8684 109.905 53.8684C110.128 53.8684 110.312 53.7987 110.456 53.6591C110.601 53.5195 110.673 53.3217 110.673 53.0658V51.7048C110.673 51.4536 110.604 51.2571 110.467 51.1151C110.33 50.9731 110.142 50.9023 109.905 50.9023C109.682 50.9023 109.498 50.9731 109.354 51.1151C109.21 51.2571 109.137 51.4536 109.137 51.7048V55.9623H108.858V50.658H109.137V51.0279C109.23 50.9255 109.344 50.8325 109.479 50.7487C109.614 50.6649 109.756 50.6231 109.905 50.6231C110.054 50.6231 110.192 50.6498 110.32 50.7033C110.448 50.7568 110.559 50.8313 110.652 50.9266C110.745 51.0221 110.818 51.136 110.872 51.2687C110.925 51.4013 110.952 51.5466 110.952 51.7048V53.0658C110.952 53.2287 110.924 53.3775 110.868 53.5125C110.812 53.6475 110.737 53.7614 110.641 53.8544C110.546 53.9475 110.435 54.0196 110.31 54.0708C110.184 54.122 110.049 54.1476 109.905 54.1476C109.728 54.1476 109.565 54.1081 109.417 54.0289V53.7218ZM111.824 49.2621H112.104V53.1357C112.104 53.2659 112.105 53.3753 112.107 53.4637C112.109 53.552 112.119 53.6288 112.135 53.694C112.151 53.7591 112.178 53.8103 112.215 53.8475C112.253 53.8847 112.308 53.9033 112.383 53.9033V54.1825C112.253 54.1825 112.15 54.1557 112.076 54.1023C112.001 54.0488 111.945 53.9766 111.908 53.8859C111.871 53.7952 111.848 53.6881 111.838 53.5648C111.829 53.4415 111.824 53.2985 111.824 53.1357V49.2621ZM113.674 52.4027H114.163C114.386 52.4027 114.57 52.333 114.714 52.1934C114.858 52.0538 114.93 51.8793 114.93 51.67C114.93 51.4187 114.858 51.2279 114.714 51.0977C114.57 50.9674 114.386 50.9023 114.163 50.9023C113.925 50.9023 113.738 50.9674 113.601 51.0977C113.463 51.2279 113.395 51.4187 113.395 51.67V53.1007C113.395 53.3566 113.463 53.5544 113.601 53.694C113.738 53.8335 113.925 53.9034 114.163 53.9034C114.423 53.9034 114.635 53.801 114.798 53.5963L115.021 53.7428C114.928 53.8778 114.805 53.9848 114.651 54.0638C114.498 54.1429 114.335 54.1825 114.163 54.1825C114.014 54.1825 113.875 54.157 113.747 54.1058C113.619 54.0546 113.509 53.9825 113.416 53.8894C113.323 53.7963 113.249 53.6823 113.196 53.5473C113.142 53.4125 113.116 53.2635 113.116 53.1007V51.7049C113.116 51.5466 113.142 51.4013 113.196 51.2687C113.249 51.136 113.323 51.0221 113.416 50.9267C113.509 50.8313 113.619 50.7569 113.747 50.7033C113.875 50.6498 114.014 50.6231 114.163 50.6231C114.307 50.6231 114.442 50.6498 114.567 50.7033C114.693 50.7569 114.803 50.8313 114.899 50.9267C114.994 51.0221 115.07 51.136 115.126 51.2687C115.181 51.4013 115.209 51.5466 115.209 51.7049C115.209 51.8398 115.181 51.9666 115.126 52.0853C115.07 52.2039 114.994 52.3074 114.899 52.3959C114.803 52.4842 114.693 52.554 114.567 52.6052C114.442 52.6563 114.307 52.682 114.163 52.682H113.674V52.4027V52.4027ZM116.04 49.2132C116.012 49.176 115.996 49.1342 115.991 49.0876C115.987 49.0411 115.994 48.998 116.012 48.9585C116.031 48.9189 116.059 48.8852 116.096 48.8573C116.133 48.8294 116.177 48.8154 116.228 48.8154C116.294 48.8154 116.351 48.8399 116.399 48.8887C116.448 48.9375 116.473 48.9945 116.473 49.0597C116.477 49.2179 116.451 49.3389 116.392 49.4226C116.334 49.5064 116.247 49.5925 116.131 49.6808H115.991C116.089 49.5739 116.134 49.4866 116.127 49.4191C116.12 49.3517 116.091 49.283 116.04 49.2132ZM118.022 52.1306C118.162 52.1492 118.293 52.1864 118.417 52.2422C118.54 52.298 118.647 52.3679 118.737 52.4516C118.828 52.5354 118.899 52.6319 118.95 52.7413C119.002 52.8507 119.027 52.9705 119.027 53.1007C119.027 53.259 118.999 53.4043 118.943 53.537C118.888 53.6695 118.812 53.7835 118.717 53.879C118.621 53.9743 118.511 54.0488 118.385 54.1023C118.259 54.1557 118.125 54.1825 117.98 54.1825C117.831 54.1825 117.693 54.1546 117.565 54.0988C117.437 54.0429 117.327 53.9673 117.233 53.8719C117.14 53.7765 117.067 53.666 117.014 53.5404C116.96 53.4148 116.933 53.2799 116.933 53.1357H117.213C117.213 53.359 117.281 53.5428 117.418 53.687C117.556 53.8313 117.743 53.9033 117.98 53.9033C118.204 53.9033 118.387 53.8324 118.532 53.6905C118.676 53.5485 118.748 53.352 118.748 53.1007C118.748 52.9007 118.676 52.7436 118.532 52.6297C118.387 52.5157 118.204 52.44 117.98 52.4027C117.855 52.3842 117.737 52.3504 117.628 52.3016C117.518 52.2527 117.423 52.1922 117.342 52.1201C117.26 52.048 117.195 51.9654 117.146 51.8724C117.097 51.7793 117.073 51.6769 117.073 51.5653C117.073 51.4257 117.096 51.2977 117.143 51.1814C117.189 51.0651 117.254 50.9662 117.338 50.8848C117.422 50.8033 117.518 50.7394 117.628 50.6928C117.737 50.6463 117.855 50.6231 117.98 50.6231C118.176 50.6231 118.352 50.6708 118.511 50.7662C118.669 50.8615 118.792 50.986 118.881 51.1396L118.657 51.2861C118.597 51.1698 118.508 51.0768 118.392 51.007C118.276 50.9371 118.138 50.9023 117.98 50.9023C117.804 50.9023 117.655 50.9628 117.534 51.0837C117.413 51.2046 117.352 51.3653 117.352 51.5653C117.352 51.6397 117.371 51.7084 117.408 51.7712C117.445 51.8339 117.495 51.8898 117.558 51.9387C117.621 51.9875 117.693 52.0282 117.774 52.0608C117.856 52.0933 117.938 52.1167 118.022 52.1306V52.1306ZM122.552 49.2621H124.925V49.5413H122.831V51.2861H124.227V51.5653H122.831V53.8685H124.925V54.1476H122.552V49.2621V49.2621ZM126.355 52.7517L125.727 54.1476H125.413L126.195 52.4027L125.413 50.658H125.727L126.355 52.0538L126.984 50.658H127.298L126.509 52.4027L127.298 54.1476H126.984L126.355 52.7517ZM128.17 53.1007C128.17 53.352 128.239 53.5485 128.376 53.6905C128.513 53.8324 128.701 53.9033 128.938 53.9033C129.059 53.9033 129.177 53.879 129.294 53.8301C129.41 53.7812 129.501 53.7033 129.566 53.5963L129.789 53.7428C129.696 53.8731 129.574 53.979 129.423 54.0604C129.272 54.1418 129.11 54.1825 128.938 54.1825C128.789 54.1825 128.651 54.1557 128.523 54.1023C128.395 54.0488 128.284 53.9743 128.191 53.879C128.098 53.7835 128.025 53.6695 127.971 53.537C127.918 53.4043 127.891 53.259 127.891 53.1007V51.7048C127.891 51.542 127.918 51.3942 127.971 51.2616C128.025 51.1291 128.098 51.0151 128.191 50.9197C128.284 50.8243 128.395 50.751 128.523 50.6998C128.65 50.6487 128.789 50.6231 128.938 50.6231C129.105 50.6231 129.266 50.6615 129.419 50.7382C129.573 50.815 129.699 50.9278 129.796 51.0768L129.573 51.2093C129.545 51.1581 129.508 51.1128 129.461 51.0733C129.415 51.0337 129.362 51.0011 129.304 50.9755C129.246 50.95 129.184 50.9313 129.119 50.9197C129.054 50.9081 128.994 50.9023 128.938 50.9023C128.701 50.9023 128.513 50.9721 128.376 51.1116C128.239 51.2512 128.17 51.4489 128.17 51.7048V53.1007V53.1007ZM132.393 51.7048C132.393 51.4489 132.324 51.2512 132.187 51.1116C132.049 50.9721 131.862 50.9023 131.625 50.9023C131.402 50.9023 131.218 50.9721 131.074 51.1116C130.929 51.2512 130.857 51.4489 130.857 51.7048V54.1476H130.578V49.2621H130.857V51.0209C130.95 50.9185 131.064 50.8266 131.199 50.7452C131.334 50.6638 131.476 50.6231 131.625 50.6231C131.774 50.6231 131.912 50.6487 132.04 50.6998C132.168 50.751 132.279 50.8243 132.372 50.9197C132.465 51.0151 132.538 51.1291 132.591 51.2616C132.645 51.3943 132.672 51.542 132.672 51.7049V54.1476H132.393V51.7049V51.7048ZM135.024 52.5494C134.959 52.5028 134.884 52.4668 134.801 52.4412C134.717 52.4156 134.628 52.4027 134.535 52.4027C134.312 52.4027 134.128 52.4668 133.984 52.5947C133.84 52.7226 133.768 52.8914 133.768 53.1007C133.768 53.352 133.84 53.5485 133.984 53.6905C134.128 53.8324 134.312 53.9033 134.535 53.9033C134.773 53.9033 134.96 53.8324 135.097 53.6905C135.234 53.5485 135.303 53.352 135.303 53.1007V51.7048C135.303 51.4489 135.234 51.2512 135.097 51.1116C134.96 50.9721 134.773 50.9023 134.535 50.9023C134.27 50.9023 134.056 51.0046 133.893 51.2093L133.67 51.0768C133.754 50.9371 133.876 50.8266 134.036 50.7452C134.197 50.6638 134.363 50.6231 134.535 50.6231C134.684 50.6231 134.823 50.6487 134.951 50.6998C135.078 50.751 135.189 50.8243 135.282 50.9197C135.375 51.0151 135.448 51.1291 135.502 51.2616C135.555 51.3942 135.582 51.542 135.582 51.7048V53.1007C135.582 53.217 135.583 53.3217 135.586 53.4148C135.588 53.5078 135.597 53.5881 135.614 53.6556C135.63 53.723 135.658 53.7754 135.697 53.8127C135.737 53.8498 135.792 53.8684 135.861 53.8684V54.1476C135.712 54.1476 135.601 54.1139 135.526 54.0464C135.452 53.979 135.398 53.8894 135.366 53.7777C135.273 53.8987 135.154 53.9965 135.01 54.0708C134.866 54.1453 134.707 54.1825 134.535 54.1825C134.391 54.1825 134.256 54.1557 134.13 54.1023C134.005 54.0488 133.894 53.9743 133.799 53.879C133.704 53.7835 133.628 53.6695 133.572 53.537C133.516 53.4043 133.488 53.259 133.488 53.1007C133.488 52.9658 133.516 52.839 133.572 52.7204C133.628 52.6017 133.704 52.4982 133.799 52.4098C133.894 52.3214 134.005 52.2516 134.13 52.2004C134.256 52.1492 134.391 52.1236 134.535 52.1236C134.712 52.1236 134.875 52.1632 135.024 52.2422V52.5494V52.5494ZM136.559 50.658H136.838V51.0279C136.931 50.9255 137.045 50.8325 137.18 50.7487C137.315 50.6649 137.457 50.6231 137.606 50.6231C137.755 50.6231 137.893 50.6498 138.021 50.7033C138.149 50.7568 138.26 50.8313 138.353 50.9266C138.446 51.0221 138.519 51.136 138.573 51.2687C138.626 51.4013 138.653 51.5466 138.653 51.7048V54.1476H138.374V51.7048C138.374 51.4536 138.305 51.2571 138.168 51.1151C138.031 50.9731 137.843 50.9023 137.606 50.9023C137.383 50.9023 137.199 50.9731 137.055 51.1151C136.911 51.2571 136.838 51.4536 136.838 51.7048V54.1476H136.559V50.658V50.658ZM140.572 53.5893C140.424 53.5893 140.285 53.5625 140.157 53.509C140.029 53.4555 139.919 53.381 139.826 53.2856C139.733 53.1903 139.659 53.0763 139.606 52.9437C139.552 52.811 139.526 52.6657 139.526 52.5075V51.7048C139.526 51.542 139.552 51.3942 139.606 51.2616C139.659 51.1291 139.733 51.015 139.826 50.9197C139.919 50.8243 140.029 50.751 140.157 50.6998C140.285 50.6487 140.424 50.6231 140.572 50.6231C140.735 50.6231 140.889 50.6591 141.033 50.7312C141.177 50.8033 141.298 50.8999 141.396 51.0209C141.429 50.8999 141.483 50.8091 141.56 50.7487C141.637 50.6882 141.75 50.658 141.898 50.658V50.9371C141.824 50.9371 141.768 50.9558 141.731 50.9929C141.694 51.0301 141.667 51.0814 141.651 51.1465C141.634 51.2116 141.625 51.2919 141.623 51.3873C141.62 51.4827 141.619 51.5886 141.619 51.7048V52.5075C141.619 52.6657 141.591 52.811 141.536 52.9437C141.48 53.0763 141.404 53.1903 141.309 53.2856C141.213 53.381 141.103 53.4555 140.977 53.509C140.852 53.5625 140.717 53.5893 140.572 53.5893V53.5893ZM139.805 52.5075C139.805 52.7587 139.873 52.9553 140.011 53.0972C140.148 53.2391 140.335 53.3101 140.572 53.3101C140.796 53.3101 140.98 53.2391 141.124 53.0972C141.268 52.9553 141.34 52.7587 141.34 52.5075V51.7048C141.34 51.4489 141.268 51.2512 141.124 51.1116C140.98 50.9721 140.796 50.9023 140.572 50.9023C140.335 50.9023 140.148 50.9721 140.011 51.1116C139.873 51.2512 139.805 51.4489 139.805 51.7048V52.5075ZM139.805 54.9154C139.805 55.1387 139.877 55.3224 140.021 55.4667C140.165 55.6109 140.349 55.6831 140.572 55.6831C140.81 55.6831 140.997 55.612 141.134 55.4702C141.271 55.3282 141.34 55.1317 141.34 54.8804C141.34 54.6711 141.271 54.4966 141.134 54.3569C140.997 54.2174 140.81 54.1476 140.572 54.1476V53.8684C140.721 53.8684 140.86 53.8963 140.988 53.9522C141.116 54.0079 141.226 54.0824 141.319 54.1755C141.412 54.2686 141.486 54.3756 141.539 54.4966C141.593 54.6176 141.619 54.7455 141.619 54.8804C141.619 55.0386 141.593 55.184 141.539 55.3167C141.486 55.4492 141.412 55.5632 141.319 55.6587C141.226 55.754 141.116 55.8285 140.988 55.882C140.86 55.9355 140.721 55.9622 140.572 55.9622C140.428 55.9622 140.293 55.9343 140.168 55.8785C140.042 55.8226 139.932 55.747 139.836 55.6516C139.741 55.5563 139.665 55.4457 139.609 55.3201C139.553 55.1945 139.526 55.0596 139.526 54.9154H139.805ZM143.085 52.4027H143.573C143.797 52.4027 143.981 52.333 144.125 52.1934C144.269 52.0538 144.341 51.8793 144.341 51.6699C144.341 51.4187 144.269 51.2279 144.125 51.0976C143.981 50.9674 143.797 50.9023 143.573 50.9023C143.336 50.9023 143.149 50.9674 143.012 51.0976C142.874 51.2279 142.806 51.4187 142.806 51.6699V53.1007C142.806 53.3566 142.874 53.5544 143.012 53.6939C143.149 53.8335 143.336 53.9033 143.573 53.9033C143.834 53.9033 144.046 53.801 144.209 53.5963L144.432 53.7428C144.339 53.8777 144.216 53.9848 144.062 54.0638C143.908 54.1429 143.746 54.1824 143.573 54.1824C143.425 54.1824 143.286 54.1569 143.158 54.1058C143.03 54.0546 142.92 53.9824 142.827 53.8894C142.734 53.7963 142.66 53.6823 142.607 53.5473C142.553 53.4125 142.527 53.2635 142.527 53.1007V51.7048C142.527 51.5466 142.553 51.4013 142.607 51.2686C142.66 51.136 142.734 51.0221 142.827 50.9266C142.92 50.8312 143.03 50.7568 143.158 50.7033C143.286 50.6498 143.425 50.6231 143.573 50.6231C143.718 50.6231 143.853 50.6498 143.978 50.7033C144.104 50.7568 144.214 50.8312 144.31 50.9266C144.405 51.0221 144.481 51.136 144.537 51.2686C144.592 51.4013 144.62 51.5466 144.62 51.7048C144.62 51.8397 144.592 51.9665 144.537 52.0852C144.481 52.2039 144.405 52.3074 144.31 52.3958C144.214 52.4842 144.104 52.554 143.978 52.6051C143.853 52.6563 143.718 52.682 143.573 52.682H143.085V52.4027Z" fill="white" stroke="white" stroke-width="0.1"/>
</g>
<defs>
<clipPath id="clip0_145_10080">
<rect width="88.6583" height="26" fill="white" transform="translate(56 30)"/>
</clipPath>
</defs>
</svg>
