<svg width="200" height="85" viewBox="0 0 200 85" fill="none" xmlns="http://www.w3.org/2000/svg">
<rect width="200" height="85" rx="20" fill="#535FE6"/>
<g clip-path="url(#clip0_145_10040)">
<path d="M52.2041 51.9811C48.6041 51.9811 45.0803 49.3907 45.0803 43.5431C45.0803 37.6764 48.6041 35.124 52.2041 35.124C53.9756 35.124 55.3661 35.5812 56.3565 36.2288L55.2708 38.6097C54.6041 38.1335 53.6137 37.8288 52.6232 37.8288C50.4518 37.8288 48.4708 39.5431 48.4708 43.505C48.4708 47.4669 50.5089 49.2192 52.6232 49.2192C53.6137 49.2192 54.6041 48.9145 55.2708 48.4383L56.3565 50.8764C55.328 51.5621 53.9756 51.9811 52.2041 51.9811Z" fill="white"/>
<path d="M64.6042 51.9811C60.0137 51.9811 57.4803 48.343 57.4803 43.5431C57.4803 38.7431 59.9946 35.124 64.6042 35.124C69.1947 35.124 71.728 38.724 71.728 43.5431C71.728 48.343 69.1947 51.9811 64.6042 51.9811ZM64.6042 37.7335C62.0518 37.7335 60.7946 40.0193 60.7946 43.505C60.7946 46.9907 62.0518 49.2954 64.6042 49.2954C67.1566 49.2954 68.4137 46.9907 68.4137 43.505C68.4137 40.0193 67.1566 37.7335 64.6042 37.7335Z" fill="white"/>
<path d="M76.1469 32.5146C75.0612 32.5146 74.1851 31.6765 74.1851 30.6479C74.1851 29.6193 75.0612 28.7812 76.1469 28.7812C77.2326 28.7812 78.1088 29.6193 78.1088 30.6479C78.1088 31.6765 77.2136 32.5146 76.1469 32.5146ZM74.4898 35.4479H77.8041V51.6384H74.4898V35.4479Z" fill="white"/>
<path d="M90.7946 51.6383V40.8383C90.7946 38.9526 89.6517 37.7716 87.4041 37.7716C86.2041 37.7716 85.0993 37.9812 84.4327 38.2478V51.6574H81.1565V36.2669C82.7755 35.6002 84.8517 35.124 87.385 35.124C91.9184 35.124 94.1088 37.105 94.1088 40.5335V51.6574H90.7946" fill="white"/>
<path d="M102.814 51.9812C100.718 51.9812 98.6422 51.4669 97.366 50.8383V28.0574H100.642V35.8669C101.423 35.505 102.68 35.2002 103.804 35.2002C107.975 35.2002 110.814 38.2098 110.814 43.1621C110.814 49.2764 107.652 51.9812 102.814 51.9812ZM103.233 37.7717C102.337 37.7717 101.271 37.9812 100.642 38.305V48.9336C101.118 49.1431 102.052 49.3526 102.985 49.3526C105.595 49.3526 107.518 47.5431 107.518 43.4098C107.537 39.8669 105.861 37.7717 103.233 37.7717Z" fill="white"/>
<path d="M119.728 51.9811C115.08 51.9811 112.718 50.0954 112.718 46.8954C112.718 42.3812 117.518 41.5812 122.414 41.3145V40.2859C122.414 38.2478 121.061 37.524 118.985 37.524C117.461 37.524 115.594 38.0002 114.509 38.5145L113.671 36.2669C114.966 35.6955 117.156 35.124 119.328 35.124C123.195 35.124 125.556 36.6288 125.556 40.6288V50.8383C124.395 51.4669 122.014 51.9811 119.728 51.9811ZM122.433 43.505C119.118 43.6764 115.823 43.9621 115.823 46.8383C115.823 48.5526 117.137 49.6002 119.633 49.6002C120.68 49.6002 121.918 49.4288 122.433 49.1811V43.505Z" fill="white"/>
<path d="M132.947 51.9811C131.061 51.9811 129.08 51.4669 127.899 50.8383L129.004 48.324C129.842 48.8383 131.614 49.3716 132.852 49.3716C134.623 49.3716 135.804 48.4954 135.804 47.1431C135.804 45.6764 134.566 45.105 132.928 44.4954C130.757 43.6764 128.338 42.6859 128.338 39.6573C128.338 36.9907 130.414 35.124 134.014 35.124C135.976 35.124 137.595 35.6002 138.738 36.2669L137.709 38.5526C136.985 38.0954 135.538 37.6002 134.376 37.6002C132.661 37.6002 131.709 38.4954 131.709 39.6764C131.709 41.1431 132.909 41.6573 134.509 42.2669C136.757 43.105 139.252 44.0383 139.252 47.2002C139.233 50.0764 137.004 51.9811 132.947 51.9811Z" fill="white"/>
<path d="M155.213 43.4669L144.451 44.9716C144.775 47.8859 146.68 49.3526 149.404 49.3526C151.023 49.3526 152.775 48.9526 153.88 48.3621L154.833 50.8192C153.575 51.4859 151.404 51.9621 149.175 51.9621C144.071 51.9621 141.213 48.6859 141.213 43.524C141.213 38.5716 143.975 35.105 148.509 35.105C152.718 35.105 155.213 37.8669 155.213 42.2288C155.252 42.6288 155.252 43.0478 155.213 43.4669ZM148.49 37.524C145.975 37.524 144.318 39.4478 144.261 42.8193L152.109 41.7335C152.071 38.9145 150.642 37.524 148.49 37.524Z" fill="white"/>
</g>
<defs>
<clipPath id="clip0_145_10040">
<rect width="110.294" height="24" fill="white" transform="translate(45 28)"/>
</clipPath>
</defs>
</svg>
