<svg width="200" height="85" viewBox="0 0 200 85" fill="none" xmlns="http://www.w3.org/2000/svg">
<rect width="200" height="85" rx="20" fill="#535FE6"/>
<g clip-path="url(#clip0_145_9980)">
<path d="M153.363 48.7341C154.109 49.523 158.209 53.3039 164.644 48.9159C169.298 45.2993 169.181 37.4586 168.734 35.0908C168.579 35.4354 163.174 47.2476 153.363 48.7341ZM168.734 35.0888C168.677 35.0653 162.69 34.2507 156.772 38.0549C153.097 40.4172 152.611 43.8746 152.779 46.1784C161.382 45.2176 168.539 35.3597 168.734 35.0888Z" fill="white"/>
<path fill-rule="evenodd" clip-rule="evenodd" d="M168.734 35.0888C168.677 35.0653 162.69 34.2507 156.772 38.0549C153.097 40.4172 152.611 43.8746 152.779 46.1784C161.382 45.2176 168.539 35.3597 168.734 35.0888Z" fill="white"/>
<path d="M39.6915 48.2731H32.9896V44.7108H39.6915C41.367 44.7108 42.223 45.5105 42.223 46.5465C42.223 47.5461 41.3852 48.2731 39.6915 48.2731ZM39.473 42.8025H32.9896V39.8037H39.473C41.2395 39.8037 41.9316 40.4216 41.9316 41.2758C41.9316 42.0573 41.1303 42.8025 39.473 42.8025ZM41.1849 43.7112C44.0077 43.6204 45.0275 42.2209 45.0275 40.6942C45.0275 39.0222 43.6981 37.6409 40.4564 37.6409H30.094V50.3995H40.766C43.4249 50.3995 45.41 49.2909 45.41 46.91C45.41 45.2197 44.2991 43.7839 41.1849 43.7112ZM48.83 37.6409V50.3995H51.7257V37.6409H48.83ZM63.4685 40.0581H69.8425V37.6409H54.1987V40.0581H60.5728V50.3995H63.4685V40.0581ZM72.3156 37.6409V50.3995H75.2112V45.4197H82.0042V43.3296H75.2112V39.84H86.2475V37.6409H72.3156ZM88.5931 37.6409V50.3995H91.4887V37.6409H88.5931ZM98.2779 40.7488L107.875 50.3995H111.154V37.6409H108.294V46.8373L99.0792 37.6409H95.4005V50.3995H98.2779V40.7488ZM115.065 37.6409V50.3995H129.234V48.2549H117.961V44.7472H124.717V42.7662H117.961V39.84H129.234V37.6409H115.065ZM148.626 37.6409H144.801L139.92 42.13L135.076 37.6409H131.197L138.008 43.9293L130.942 50.3995H134.767L139.884 45.6923L144.983 50.3995H148.881L141.796 43.9112L148.626 37.6409Z" fill="white"/>
</g>
<defs>
<clipPath id="clip0_145_9980">
<rect width="139" height="16" fill="white" transform="translate(30 35)"/>
</clipPath>
</defs>
</svg>
